<svg xmlns="http://www.w3.org/2000/svg" viewBox="0 0 400 300" class="w-full h-full p-8"><path d="M0,100 Q100,80 200,125 T400,90" fill="none" stroke="white" stroke-width="1.5" opacity="0.6"></path><path d="M0,104 Q100,93.58851077208406 200,128.3300473368841 T400,103.73545855771627" fill="none" stroke="white" stroke-width="1.5" opacity="0.7"></path><path d="M0,108 Q100,104.82941969615793 200,130.38003422364517 T400,115.93390227248807" fill="none" stroke="white" stroke-width="1.5" opacity="0.8"></path><path d="M0,112 Q100,111.9498997320811 200,131.32414952405998 T400,125.30097714918065" fill="none" stroke="white" stroke-width="1.5" opacity="0.6"></path><path d="M0,116 Q100,114.18594853651364 200,131.4353663171501 T400,130.98934007603762" fill="none" stroke="white" stroke-width="1.5" opacity="0.7"></path><path d="M0,120 Q100,111.96944288207914 200,131.06105802501554 T400,132.73243567064205" fill="none" stroke="white" stroke-width="1.5" opacity="0.8"></path><path d="M0,124 Q100,106.82240016119735 200,130.5919685796037 T400,130.88657951377877" fill="none" stroke="white" stroke-width="1.5" opacity="0.6"></path><path d="M0,128 Q100,100.98433544620761 200,130.42730843100213 T400,126.37470375389762" fill="none" stroke="white" stroke-width="1.5" opacity="0.7"></path><path d="M0,132 Q100,96.86395009384144 200,130.9390942668813 T400,120.5406464143105" fill="none" stroke="white" stroke-width="1.5" opacity="0.8"></path><path d="M0,136 Q100,96.44939764669806 200,132.43891786974407 T400,114.9369889176287" fill="none" stroke="white" stroke-width="1.5" opacity="0.6"></path><path d="M0,140 Q100,100.82151450673723 200,135.15011255099333 T400,111.0799376173018" fill="none" stroke="white" stroke-width="1.5" opacity="0.7"></path><path d="M0,144 Q100,109.88919348859216 200,139.18780345136702 T400,110.2099481527621" fill="none" stroke="white" stroke-width="1.5" opacity="0.8"></path><path d="M0,148 Q100,122.41169003602148 200,144.5486237549878 T400,113.09588477910398" fill="none" stroke="white" stroke-width="1.5" opacity="0.6"></path><path d="M0,152 Q100,136.3023997617563 200,151.1110154369979 T400,119.91363360699617" fill="none" stroke="white" stroke-width="1.5" opacity="0.7"></path><path d="M0,156 Q100,149.1397319743758 200,158.64608767988952 T400,130.21833405319197" fill="none" stroke="white" stroke-width="1.5" opacity="0.8"></path><path d="M0,160 Q100,158.75999953549479 200,166.8380630085383 T400,143.01461254502686" fill="none" stroke="white" stroke-width="1.5" opacity="0.6"></path><path d="M0,164 Q100,163.78716493246765 200,175.31248475159168 T400,156.91373012126235" fill="none" stroke="white" stroke-width="1.5" opacity="0.7"></path><path d="M0,168 Q100,163.9697422524698 200,183.66966614069472 T400,170.35283377846523" fill="none" stroke="white" stroke-width="1.5" opacity="0.8"></path><path d="M0,172 Q100,160.24236970483514 200,191.52039313913951 T400,181.84169659622881" fill="none" stroke="white" stroke-width="1.5" opacity="0.6"></path><path d="M0,176 Q100,154.4969775907638 200,198.52069177258738 T400,190.19799180078718" fill="none" stroke="white" stroke-width="1.5" opacity="0.7"></path><path d="M0,180 Q100,149.11957778221262 200,204.40255429975548 T400,194.73395616558454" fill="none" stroke="white" stroke-width="1.5" opacity="0.8"></path><path d="M0,184 Q100,146.4060848005666 200,208.99787954575123 T400,195.364972702207" fill="none" stroke="white" stroke-width="1.5" opacity="0.6"></path><path d="M0,188 Q100,148.00019586898594 200,212.25348887937795 T400,192.62292982229405" fill="none" stroke="white" stroke-width="1.5" opacity="0.7"></path><path d="M0,192 Q100,154.49095650623144 200,214.23587650188037 T400,187.57224785250614" fill="none" stroke="white" stroke-width="1.5" opacity="0.8"></path><path d="M0,196 Q100,165.2685416399913 200,215.12526971798383 T400,181.64183046942546" fill="none" stroke="white" stroke-width="1.5" opacity="0.6"></path></svg>